<mxfile host="app.diagrams.net" modified="2023-04-18T21:01:13.143Z" agent="Mozilla/5.0 (Macintosh; Intel Mac OS X 10_15_7) AppleWebKit/537.36 (KHTML, like Gecko) Chrome/112.0.0.0 Safari/537.36" version="21.1.9" etag="0E9K4SigGX6P7zSbf8hC" type="github">
  <diagram name="Page-1" id="0qnpwhqwONyR9Hv-ucV4">
    <mxGraphModel>
      <root>
        <mxCell id="0" />
        <mxCell id="1" parent="0" />
      </root>
    </mxGraphModel>
  </diagram>
</mxfile>
